<svg width="42" height="40" viewBox="0 0 42 40" fill="none" xmlns="http://www.w3.org/2000/svg">
    <path opacity="0.5" d="M41.3624 0.265026L31.2399 36.1246C31.1884 36.2873 30.9825 36.3362 30.8624 36.2222L24.0855 29.7926L29.1639 11.8221C29.2154 11.6593 29.061 11.5128 28.8894 11.5617L9.94823 16.3798L3.20559 9.98275C3.08549 9.86881 3.13696 9.67348 3.30853 9.62464L41.0879 0.00458398C41.2595 -0.0279712 41.4139 0.118527 41.3624 0.265026Z" fill="#00B37E"/>
    <path opacity="0.5" d="M24.085 29.7921L21.4772 39.0704C21.4257 39.2332 21.2199 39.282 21.0998 39.168L0.0654529 19.228C-0.054645 19.114 -0.00317474 18.9187 0.168394 18.8699L9.9478 16.3794L24.085 29.7921Z" fill="#00B37E"/>
    <path d="M29.1632 11.8215L24.0848 29.792L9.94751 16.3792L28.8887 11.5611C29.0602 11.5122 29.2147 11.6587 29.1632 11.8215Z" fill="#00B37E"/>
</svg>
